<?xml version="1.0" standalone="no"?><!DOCTYPE svg PUBLIC "-//W3C//DTD SVG 1.1//EN" "http://www.w3.org/Graphics/SVG/1.1/DTD/svg11.dtd"><svg t="1654150136767" class="icon" viewBox="0 0 1024 1024" version="1.1" xmlns="http://www.w3.org/2000/svg" p-id="1844" xmlns:xlink="http://www.w3.org/1999/xlink" width="320" height="320"><defs><style type="text/css">@font-face { font-family: feedback-iconfont; src: url("//at.alicdn.com/t/font_1031158_u69w8yhxdu.woff2?t=1630033759944") format("woff2"), url("//at.alicdn.com/t/font_1031158_u69w8yhxdu.woff?t=1630033759944") format("woff"), url("//at.alicdn.com/t/font_1031158_u69w8yhxdu.ttf?t=1630033759944") format("truetype"); }
</style></defs><path d="M512 1024C229.239467 1024 0 794.760533 0 512S229.239467 0 512 0 1024 229.239467 1024 512 794.760533 1024 512 1024z m-120.445156-283.0336c-12.447289 3.003733-21.845333 13.744356-21.845333 27.056356 0 15.701333 12.743111 28.421689 28.512711 28.421688h227.555556a28.444444 28.444444 0 0 0 28.512711-28.444444c0-13.289244-9.398044-24.029867-21.845333-27.0336C729.247289 695.591822 796.444444 597.924978 796.444444 484.511289H227.555556c0 113.2544 67.356444 211.080533 163.999288 256.455111z m376.376889-376.354133a85.333333 85.333333 0 0 0-81.92-82.102045 86.6304 86.6304 0 0 0-80.258844-22.664533 85.151289 85.151289 0 0 0-65.376711-30.72 85.378844 85.378844 0 0 0-65.399467 30.72c-30.947556-7.418311-65.217422 4.232533-85.4016 28.421689-6.530844-1.524622-13.198222-2.275556-19.8656-2.275556a85.356089 85.356089 0 0 0-81.624178 60.324978A85.151289 85.151289 0 0 0 227.555556 427.667911h568.888888a84.5824 84.5824 0 0 0-28.512711-63.032889z" p-id="1845" fill="#f3e900"></path></svg>